<svg width="34" height="33" viewBox="0 0 34 33" fill="none" xmlns="http://www.w3.org/2000/svg">
<path d="M13.8244 24.9018L19.2168 19.668V20.8032C19.2168 20.8362 19.2168 20.8692 19.2168 20.9022C19.244 22.8822 20.9236 24.4662 22.9636 24.4398C25.0036 24.4134 26.6356 22.7832 26.6084 20.8032V9.32581C26.6084 8.13781 25.6156 7.17421 24.3916 7.17421H12.5664C12.5324 7.17421 12.4984 7.17421 12.4644 7.17421C10.4244 7.20061 8.79238 8.83081 8.81958 10.8108C8.84678 12.7908 10.5264 14.3748 12.5664 14.3484H13.736L8.35038 19.5822C8.30958 19.6218 8.26878 19.6614 8.22798 19.701C6.74558 21.2058 6.80678 23.5818 8.35038 25.0206C9.89398 26.4594 12.3488 26.4 13.8244 24.9018ZM9.39078 20.592L16.048 14.1372C16.184 14.0052 16.2656 13.8204 16.2656 13.629C16.2656 13.233 15.9324 12.9096 15.5244 12.9096H12.5664C11.3424 12.9096 10.3496 11.946 10.3496 10.758C10.3496 9.57001 11.3424 8.60641 12.5664 8.60641H24.3984C24.8064 8.60641 25.1396 8.92981 25.1396 9.32581V20.8032C25.1396 21.9912 24.1468 22.9548 22.9228 22.9548C21.6988 22.9548 20.706 21.9912 20.6992 20.8032V17.9322C20.6992 17.7408 20.6244 17.5626 20.4816 17.424C20.196 17.1402 19.7268 17.1402 19.4344 17.424L12.784 23.8854C11.8456 24.7962 10.3292 24.7962 9.39078 23.8854C8.45238 22.9746 8.45238 21.5028 9.39078 20.592Z" fill="#010101"/>
<path d="M17 33C26.3704 33 34 25.5948 34 16.5C34 7.4052 26.3704 0 17 0C7.6296 0 0 7.4052 0 16.5C0 25.5948 7.6296 33 17 33ZM17 1.4322C25.5612 1.4322 32.5244 8.1906 32.5244 16.5C32.5244 24.8094 25.5612 31.5678 17 31.5678C8.4388 31.5678 1.4756 24.8094 1.4756 16.5C1.4756 8.1906 8.4388 1.4322 17 1.4322Z" fill="#010101"/>
</svg>
