<svg width="24" height="23" viewBox="0 0 24 23" fill="none" xmlns="http://www.w3.org/2000/svg">
<path d="M7.79359 18.2931C7.79359 18.3871 7.68555 18.4622 7.54931 18.4622C7.39428 18.4763 7.28624 18.4012 7.28624 18.2931C7.28624 18.1991 7.39429 18.124 7.53052 18.124C7.67145 18.1099 7.79359 18.1851 7.79359 18.2931ZM6.33259 18.0817C6.29971 18.1757 6.39366 18.2837 6.53459 18.3119C6.65674 18.3589 6.79767 18.3119 6.82586 18.2179C6.85404 18.124 6.76478 18.0159 6.62385 17.9737C6.50171 17.9408 6.36547 17.9877 6.33259 18.0817ZM8.409 18.0018C8.27277 18.0347 8.17881 18.124 8.19291 18.232C8.207 18.326 8.32914 18.3871 8.47007 18.3542C8.60631 18.3213 8.70026 18.232 8.68617 18.1381C8.67208 18.0488 8.54524 17.9877 8.409 18.0018ZM11.5001 0C4.98433 0 0 4.94675 0 11.4626C0 16.6724 3.27904 21.1306 7.96271 22.6996C8.56403 22.8077 8.77543 22.4365 8.77543 22.1312C8.77543 21.8399 8.76134 20.2333 8.76134 19.2468C8.76134 19.2468 5.4729 19.9514 4.78233 17.8468C4.78233 17.8468 4.24678 16.4798 3.47635 16.1274C3.47635 16.1274 2.40056 15.3899 3.55151 15.404C3.55151 15.404 4.72126 15.4979 5.36485 16.616C6.39366 18.4293 8.11774 17.9079 8.78952 17.5978C8.89757 16.8462 9.20292 16.3247 9.54116 16.0147C6.91511 15.7234 4.26557 15.3429 4.26557 10.8237C4.26557 9.53177 4.6226 8.88348 5.37425 8.05667C5.2521 7.75132 4.85279 6.49231 5.49639 4.86689C6.47822 4.56153 8.73785 6.13528 8.73785 6.13528C9.6774 5.87221 10.6874 5.73597 11.688 5.73597C12.6887 5.73597 13.6987 5.87221 14.6382 6.13528C14.6382 6.13528 16.8979 4.55683 17.8797 4.86689C18.5233 6.49701 18.124 7.75132 18.0018 8.05667C18.7535 8.88818 19.2139 9.53647 19.2139 10.8237C19.2139 15.357 16.4469 15.7187 13.8208 16.0147C14.253 16.3858 14.6195 17.0905 14.6195 18.1945C14.6195 19.7776 14.6054 21.7366 14.6054 22.1218C14.6054 22.4271 14.8215 22.7983 15.4181 22.6902C20.1158 21.1306 23.3009 16.6724 23.3009 11.4626C23.3009 4.94675 18.0159 0 11.5001 0ZM4.56623 16.2026C4.50516 16.2496 4.51925 16.3576 4.59911 16.4469C4.67428 16.522 4.78233 16.5549 4.8434 16.4939C4.90447 16.4469 4.89038 16.3388 4.81051 16.2496C4.73535 16.1744 4.6273 16.1415 4.56623 16.2026ZM4.05887 15.8221C4.02599 15.8832 4.07296 15.9583 4.16692 16.0053C4.24208 16.0523 4.33604 16.0382 4.36892 15.9724C4.40181 15.9113 4.35483 15.8362 4.26087 15.7892C4.16692 15.761 4.09176 15.7751 4.05887 15.8221ZM5.58095 17.4945C5.50578 17.5556 5.53397 17.6965 5.64202 17.7857C5.75007 17.8938 5.8863 17.9079 5.94737 17.8327C6.00844 17.7717 5.98026 17.6307 5.8863 17.5415C5.78295 17.4334 5.64202 17.4193 5.58095 17.4945ZM5.0454 16.8039C4.97024 16.8509 4.97024 16.973 5.0454 17.0811C5.12057 17.1891 5.24741 17.2361 5.30848 17.1891C5.38364 17.1281 5.38364 17.0059 5.30848 16.8979C5.24271 16.7898 5.12057 16.7428 5.0454 16.8039Z" fill="black"/>
</svg>
