<svg width="18" height="18" viewBox="0 0 18 18" fill="none" xmlns="http://www.w3.org/2000/svg">
<path d="M17 12.5C15.7955 12.5 14.5982 12.3145 13.4502 11.9502C13.1001 11.8501 12.7002 11.8999 12.4502 12.2002L10.25 14.4C7.39987 12.9502 5.10009 10.65 3.64987 7.79981L5.85014 5.60011C6.10008 5.35012 6.19992 4.95023 6.10008 4.60013C5.69991 3.45023 5.49998 2.25 5.49998 0.999984C5.49998 0.450188 5.05003 0 4.5 0H0.999984C0.449953 0 0 0.450188 0 0.999984C0 10.3999 7.60012 18 17 18C17.5498 18 18 17.5498 18 17V13.5C18 12.9502 17.5498 12.5 17 12.5Z" fill="black"/>
</svg>
